<svg id="63d08af7-2468-4873-9eb1-699bdf571bbd" data-name="Layer 1" xmlns="http://www.w3.org/2000/svg" viewBox="0 0 413.23 87"><title>kithub-logo</title><path d="M0,87V1.8H23.4V34.2L49.32,1.8h26.4L44.76,40,77.88,87H51L29.88,55.68,23.4,62.4V87Z" fill="#a32dbb"/><path d="M184.2,22.2H159.72V87h-23.4V22.2h-24.6V1.8H184.2Z" fill="#a32dbb"/><path d="M255.56,1.8V87h-6.12V46.2H195.68V87h-6.12V1.8h6.12V40.68h53.76V1.8Z" fill="#a32dbb"/><path d="M303,81.36q8.64,0,14.34-3.24a24.91,24.91,0,0,0,9-8.52,36.15,36.15,0,0,0,4.68-12A67.24,67.24,0,0,0,332.35,44V1.2h6.12V44a70.14,70.14,0,0,1-1.86,16.32,39.33,39.33,0,0,1-6.06,13.74,30.07,30.07,0,0,1-10.92,9.42Q312.91,87,303.07,87q-10.2,0-17-3.66a30.42,30.42,0,0,1-11-9.72,39.61,39.61,0,0,1-5.88-13.74A71.47,71.47,0,0,1,267.43,44V1.2h6.12V44a68.43,68.43,0,0,0,1.38,13.8,34.05,34.05,0,0,0,4.8,11.94,25.77,25.77,0,0,0,9.06,8.4Q294.43,81.36,303,81.36Z" fill="#a32dbb"/><path d="M413.23,64.92a21,21,0,0,1-1.8,8.7,22.26,22.26,0,0,1-4.92,7,22.49,22.49,0,0,1-7.32,4.68A23.69,23.69,0,0,1,390.31,87H350.47V1.8h39.72a16.81,16.81,0,0,1,8,1.92,20.07,20.07,0,0,1,6.12,5,22.82,22.82,0,0,1,3.9,7,23.42,23.42,0,0,1,1.38,7.86,22.66,22.66,0,0,1-3.24,11.88,19.26,19.26,0,0,1-9,7.92A21.19,21.19,0,0,1,409,51.42,22.59,22.59,0,0,1,413.23,64.92ZM356.59,7.32V41.4h31.2A14,14,0,0,0,394.15,40a16.59,16.59,0,0,0,5-3.78,18.09,18.09,0,0,0,4.5-11.82,18.58,18.58,0,0,0-1.14-6.54,18,18,0,0,0-3.12-5.4,14.83,14.83,0,0,0-4.74-3.72,13.49,13.49,0,0,0-6.12-1.38Zm50.52,56.76a18.67,18.67,0,0,0-4.56-12.18,16.21,16.21,0,0,0-5.1-3.9,14.13,14.13,0,0,0-6.3-1.44H356.59V81.48h33.72A15.44,15.44,0,0,0,397,80a16.49,16.49,0,0,0,5.28-3.9,19.75,19.75,0,0,0,3.54-5.58A16.47,16.47,0,0,0,407.11,64.08Z" fill="#a32dbb"/><path d="M110.55,49.5V83.08A3.79,3.79,0,0,1,106.91,87H84.2a3.8,3.8,0,0,1-3.65-3.92V49.5a1.69,1.69,0,0,1,1.62-1.74h26.76A1.69,1.69,0,0,1,110.55,49.5Z" fill="#a32dbb"/><path d="M103.64,1.74a1.73,1.73,0,0,0-.93-1.57A1.49,1.49,0,0,0,101,.4L88.07,11.74a1.8,1.8,0,0,0-.6,1.36v6.13h16.17Z" fill="#a32dbb"/><path d="M106.42,24.45V44.28H84.68V24.45a1.69,1.69,0,0,1,1.62-1.74h18.5A1.69,1.69,0,0,1,106.42,24.45Z" fill="#a32dbb"/></svg>