<svg id="78c88051-c6ab-4173-afe8-fd917d31ae91" data-name="Layer 1" xmlns="http://www.w3.org/2000/svg" viewBox="0 0 430.23 95"><title>Artboard 1</title><path d="M4,91V5.8H27.4V38.2L53.32,5.8h26.4L48.76,44,81.88,91H55L33.88,59.68,27.4,66.4V91Z" fill="#a32dbb"/><path d="M188.2,26.2H163.72V91h-23.4V26.2h-24.6V5.8H188.2Z" fill="#a32dbb"/><path d="M259.56,5.8V91h-6.12V50.2H199.68V91h-6.12V5.8h6.12V44.68h53.76V5.8Z" fill="#a32dbb"/><path d="M307,85.36q8.64,0,14.34-3.24a24.91,24.91,0,0,0,9-8.52,36.15,36.15,0,0,0,4.68-12A67.24,67.24,0,0,0,336.35,48V5.2h6.12V48a70.14,70.14,0,0,1-1.86,16.32,39.33,39.33,0,0,1-6.06,13.74,30.07,30.07,0,0,1-10.92,9.42Q316.91,91,307.07,91q-10.2,0-17-3.66a30.42,30.42,0,0,1-11-9.72,39.61,39.61,0,0,1-5.88-13.74A71.47,71.47,0,0,1,271.43,48V5.2h6.12V48a68.43,68.43,0,0,0,1.38,13.8,34.05,34.05,0,0,0,4.8,11.94,25.77,25.77,0,0,0,9.06,8.4Q298.43,85.36,307,85.36Z" fill="#a32dbb"/><path d="M417.23,68.92a21,21,0,0,1-1.8,8.7,22.26,22.26,0,0,1-4.92,7,22.49,22.49,0,0,1-7.32,4.68A23.69,23.69,0,0,1,394.31,91H354.47V5.8h39.72a16.81,16.81,0,0,1,8,1.92,20.07,20.07,0,0,1,6.12,5,22.82,22.82,0,0,1,3.9,7,23.42,23.42,0,0,1,1.38,7.86,22.66,22.66,0,0,1-3.24,11.88,19.26,19.26,0,0,1-9,7.92A21.19,21.19,0,0,1,413,55.42,22.59,22.59,0,0,1,417.23,68.92Zm-56.64-57.6V45.4h31.2A14,14,0,0,0,398.15,44a16.59,16.59,0,0,0,5-3.78,18.09,18.09,0,0,0,4.5-11.82,18.58,18.58,0,0,0-1.14-6.54,18,18,0,0,0-3.12-5.4,14.83,14.83,0,0,0-4.74-3.72,13.49,13.49,0,0,0-6.12-1.38Zm50.52,56.76a18.67,18.67,0,0,0-4.56-12.18,16.21,16.21,0,0,0-5.1-3.9,14.13,14.13,0,0,0-6.3-1.44H360.59V85.48h33.72A15.44,15.44,0,0,0,401,84a16.49,16.49,0,0,0,5.28-3.9,19.75,19.75,0,0,0,3.54-5.58A16.47,16.47,0,0,0,411.11,68.08Z" fill="#a32dbb"/><path d="M114.55,53.5V87.08A3.79,3.79,0,0,1,110.91,91H88.2a3.8,3.8,0,0,1-3.65-3.92V53.5a1.69,1.69,0,0,1,1.62-1.74h26.76A1.69,1.69,0,0,1,114.55,53.5Z" fill="#a32dbb"/><path d="M107.64,5.74a1.73,1.73,0,0,0-.93-1.57A1.49,1.49,0,0,0,105,4.4L92.07,15.74a1.8,1.8,0,0,0-.6,1.36v6.13h16.17Z" fill="#a32dbb"/><path d="M110.42,28.45V48.28H88.68V28.45a1.69,1.69,0,0,1,1.62-1.74h18.5A1.69,1.69,0,0,1,110.42,28.45Z" fill="#a32dbb"/></svg>