<svg id="07e66aea-a81c-4500-bb24-57e658fefc84" data-name="Layer 1" xmlns="http://www.w3.org/2000/svg" viewBox="0 0 430.23 95"><title>Artboard 1</title><path d="M4,88.42V3.22H27.4V35.63L53.32,3.22h26.4l-31,38.16,33.12,47H55L33.88,57.1,27.4,63.82v24.6Z" fill="#a32dbb"/><path d="M191.2,23.63H166.72V88.42h-23.4V23.63h-24.6V3.22H191.2Z" fill="#a32dbb"/><path d="M269.56,3.22v85.2h-6.12V47.63H209.68V88.42h-6.12V3.22h6.12V42.1h53.76V3.22Z" fill="#a32dbb"/><path d="M317,83.38q8.64,0,14.34-3.23a25,25,0,0,0,9-8.52,36.15,36.15,0,0,0,4.68-12,67.26,67.26,0,0,0,1.38-13.57V3.22h6.12V46.06a70,70,0,0,1-1.86,16.32,39.3,39.3,0,0,1-6.06,13.75,30,30,0,0,1-10.92,9.41Q326.91,89,317.07,89q-10.2,0-17-3.66a30.3,30.3,0,0,1-11-9.71,39.58,39.58,0,0,1-5.88-13.75,71.33,71.33,0,0,1-1.74-15.84V3.22h6.12V46.06a68.28,68.28,0,0,0,1.38,13.8,34,34,0,0,0,4.8,11.94,25.68,25.68,0,0,0,9.06,8.4C306.55,82.33,311.27,83.38,317,83.38Z" fill="#a32dbb"/><path d="M427.23,66.34a21,21,0,0,1-1.8,8.7,22.23,22.23,0,0,1-12.24,11.7,23.49,23.49,0,0,1-8.88,1.68H364.47V3.22h39.72a16.82,16.82,0,0,1,8,1.93,19.93,19.93,0,0,1,6.12,5,22.89,22.89,0,0,1,3.9,6.95,23.46,23.46,0,0,1,1.38,7.86,22.66,22.66,0,0,1-3.24,11.88,19.26,19.26,0,0,1-9,7.92A21.19,21.19,0,0,1,423,52.84,22.59,22.59,0,0,1,427.23,66.34ZM370.59,8.74V42.82h31.2a14,14,0,0,0,6.36-1.44,16.43,16.43,0,0,0,5-3.78,17.43,17.43,0,0,0,3.3-5.45,17.63,17.63,0,0,0,1.2-6.37,18.62,18.62,0,0,0-1.14-6.54,18,18,0,0,0-3.12-5.4,14.8,14.8,0,0,0-4.74-3.71,13.5,13.5,0,0,0-6.12-1.39ZM421.11,65.5a18.67,18.67,0,0,0-4.56-12.18,16.36,16.36,0,0,0-5.1-3.9,14.13,14.13,0,0,0-6.3-1.44H370.59V82.9h33.72A15.44,15.44,0,0,0,411,81.46a16.35,16.35,0,0,0,5.28-3.9A19.47,19.47,0,0,0,419.79,72,16.4,16.4,0,0,0,421.11,65.5Z" fill="#a32dbb"/><path d="M116.55,52.5V86.08A3.79,3.79,0,0,1,112.91,90H90.2a3.8,3.8,0,0,1-3.65-3.92V52.5a1.69,1.69,0,0,1,1.62-1.74h26.76A1.69,1.69,0,0,1,116.55,52.5Z" fill="#a32dbb"/><path d="M109.64,4.74a1.73,1.73,0,0,0-.93-1.57A1.49,1.49,0,0,0,107,3.4L94.07,14.74a1.8,1.8,0,0,0-.6,1.36v6.13h16.17Z" fill="#a32dbb"/><path d="M112.42,27.45V47.28H90.68V27.45a1.69,1.69,0,0,1,1.62-1.74h18.5A1.69,1.69,0,0,1,112.42,27.45Z" fill="#a32dbb"/></svg>